{
  "accessors": [
    {
      "bufferView": 2,
      "componentType": 5126,
      "count": 36,
      "max": [
        16.200000762939453,
        0.6299999952316284,
        16.200000762939453
      ],
      "min": [
        -16.200000762939453,
        0.0,
        -16.200000762939453
      ],
      "type": "VEC3"
    },
    {
      "bufferView": 2,
      "byteOffset": 432,
      "componentType": 5126,
      "count": 36,
      "max": [
        1.0,
        1.0,
        1.0
      ],
      "min": [
        -1.0,
        0.0,
        -1.0
      ],
      "type": "VEC3"
    },
    {
      "bufferView": 3,
      "componentType": 5126,
      "count": 36,
      "max": [
        1.0,
        1.0,
        0.5000110268592834,
        1.0
      ],
      "min": [
        -1.0,
        -1.0,
        -0.5000110268592834,
        1.0
      ],
      "type": "VEC4"
    },
    {
      "bufferView": 1,
      "componentType": 5126,
      "count": 36,
      "max": [
        6.666669845581055,
        1.0
      ],
      "min": [
        0.0,
        -5.25
      ],
      "type": "VEC2"
    },
    {
      "bufferView": 0,
      "componentType": 5125,
      "count": 102,
      "type": "SCALAR"
    },
    {
      "bufferView": 2,
      "byteOffset": 864,
      "componentType": 5126,
      "count": 33588,
      "max": [
        0.41471201181411743,
        -0.0015086800558492541,
        0.5064550042152405
      ],
      "min": [
        -0.29819101095199585,
        -0.015362800098955631,
        -0.5237150192260742
      ],
      "type": "VEC3"
    },
    {
      "bufferView": 2,
      "byteOffset": 403920,
      "componentType": 5126,
      "count": 33588,
      "max": [
        0.9999984502792358,
        1.0,
        0.9999963045120239
      ],
      "min": [
        -0.9999998807907104,
        -1.0,
        -0.9999994039535522
      ],
      "type": "VEC3"
    },
    {
      "bufferView": 3,
      "byteOffset": 576,
      "componentType": 5126,
      "count": 33588,
      "max": [
        0.9999999403953552,
        0.9999949932098389,
        0.9999984502792358,
        1.0
      ],
      "min": [
        -0.9999963045120239,
        -0.9999899864196777,
        -0.9999999403953552,
        -1.0
      ],
      "type": "VEC4"
    },
    {
      "bufferView": 1,
      "byteOffset": 288,
      "componentType": 5126,
      "count": 33588,
      "max": [
        1.0,
        1.028130054473877
      ],
      "min": [
        -0.22662299871444702,
        0.0
      ],
      "type": "VEC2"
    },
    {
      "bufferView": 0,
      "byteOffset": 408,
      "componentType": 5125,
      "count": 119112,
      "type": "SCALAR"
    },
    {
      "bufferView": 2,
      "byteOffset": 806976,
      "componentType": 5126,
      "count": 58,
      "max": [
        1.108109951019287,
        -0.0214696004986763,
        0.9562550187110901
      ],
      "min": [
        -1.2065099477767944,
        -0.23236200213432312,
        -1.0227899551391602
      ],
      "type": "VEC3"
    },
    {
      "bufferView": 2,
      "byteOffset": 807672,
      "componentType": 5126,
      "count": 58,
      "max": [
        0.9466516375541687,
        1.0,
        0.9435115456581116
      ],
      "min": [
        -0.9466516375541687,
        -1.0,
        -0.9466516375541687
      ],
      "type": "VEC3"
    },
    {
      "bufferView": 3,
      "byteOffset": 537984,
      "componentType": 5126,
      "count": 58,
      "max": [
        0.3222600817680359,
        1.0,
        0.9466512203216553,
        1.0
      ],
      "min": [
        -0.32226070761680603,
        -1.0,
        -0.9466514587402344,
        -1.0
      ],
      "type": "VEC4"
    },
    {
      "bufferView": 1,
      "byteOffset": 268992,
      "componentType": 5126,
      "count": 58,
      "max": [
        2.2727301120758057,
        1.2035599946975708
      ],
      "min": [
        0.0,
        0.41644400358200073
      ],
      "type": "VEC2"
    },
    {
      "bufferView": 0,
      "byteOffset": 476856,
      "componentType": 5125,
      "count": 132,
      "type": "SCALAR"
    },
    {
      "bufferView": 2,
      "byteOffset": 808368,
      "componentType": 5126,
      "count": 460,
      "max": [
        1.133270025253296,
        -0.004160319920629263,
        0.988785982131958
      ],
      "min": [
        -1.234339952468872,
        -0.24967099726200104,
        -1.047510027885437
      ],
      "type": "VEC3"
    },
    {
      "bufferView": 2,
      "byteOffset": 813888,
      "componentType": 5126,
      "count": 460,
      "max": [
        0.9466516375541687,
        1.0,
        0.9349960088729858
      ],
      "min": [
        -0.9466609954833984,
        -1.0,
        -0.9466516375541687
      ],
      "type": "VEC3"
    },
    {
      "bufferView": 3,
      "byteOffset": 538912,
      "componentType": 5126,
      "count": 460,
      "max": [
        0.9624326825141907,
        1.0,
        1.0,
        1.0
      ],
      "min": [
        -0.9623295068740845,
        -1.0,
        -1.0,
        1.0
      ],
      "type": "VEC4"
    },
    {
      "bufferView": 1,
      "byteOffset": 269456,
      "componentType": 5126,
      "count": 460,
      "max": [
        0.0,
        1.0
      ],
      "min": [
        0.0,
        1.0
      ],
      "type": "VEC2"
    },
    {
      "bufferView": 0,
      "byteOffset": 477384,
      "componentType": 5125,
      "count": 1356,
      "type": "SCALAR"
    },
    {
      "bufferView": 2,
      "byteOffset": 819408,
      "componentType": 5126,
      "count": 120,
      "max": [
        0.7809180021286011,
        -0.004160319920629263,
        0.8713470101356506
      ],
      "min": [
        -0.9379339814186096,
        -0.24967099726200104,
        -0.9491140246391296
      ],
      "type": "VEC3"
    },
    {
      "bufferView": 2,
      "byteOffset": 820848,
      "componentType": 5126,
      "count": 120,
      "max": [
        0.3222590684890747,
        1.0,
        0.9349960088729858
      ],
      "min": [
        -0.31825917959213257,
        -1.0,
        -0.9466516375541687
      ],
      "type": "VEC3"
    },
    {
      "bufferView": 3,
      "byteOffset": 546272,
      "componentType": 5126,
      "count": 120,
      "max": [
        0.9624326825141907,
        0.5005504488945007,
        1.0,
        1.0
      ],
      "min": [
        -0.9623295068740845,
        -0.5005504488945007,
        -1.0,
        1.0
      ],
      "type": "VEC4"
    },
    {
      "bufferView": 1,
      "byteOffset": 273136,
      "componentType": 5126,
      "count": 120,
      "max": [
        0.0,
        1.0
      ],
      "min": [
        0.0,
        1.0
      ],
      "type": "VEC2"
    },
    {
      "bufferView": 0,
      "byteOffset": 482808,
      "componentType": 5125,
      "count": 312,
      "type": "SCALAR"
    },
    {
      "bufferView": 2,
      "byteOffset": 822288,
      "componentType": 5126,
      "count": 65532,
      "max": [
        1.0621399879455566,
        0.2797529995441437,
        0.7509289979934692
      ],
      "min": [
        -1.0737600326538086,
        -0.23202799260616302,
        -1.2051199674606323
      ],
      "type": "VEC3"
    },
    {
      "bufferView": 2,
      "byteOffset": 1608672,
      "componentType": 5126,
      "count": 65532,
      "max": [
        0.9999988079071045,
        1.0,
        0.9999988675117493
      ],
      "min": [
        -0.9999948740005493,
        -0.9999999403953552,
        -1.0
      ],
      "type": "VEC3"
    },
    {
      "bufferView": 3,
      "byteOffset": 548192,
      "componentType": 5126,
      "count": 65532,
      "max": [
        0.9999997615814209,
        0.999972939491272,
        1.0,
        1.0
      ],
      "min": [
        -1.0,
        -0.9999821186065674,
        -1.0,
        -1.0
      ],
      "type": "VEC4"
    },
    {
      "bufferView": 1,
      "byteOffset": 274096,
      "componentType": 5126,
      "count": 65532,
      "max": [
        2.1074600219726563,
        1.0
      ],
      "min": [
        0.0,
        -1.0023499727249146
      ],
      "type": "VEC2"
    },
    {
      "bufferView": 0,
      "byteOffset": 484056,
      "componentType": 5125,
      "count": 318921,
      "type": "SCALAR"
    },
    {
      "bufferView": 2,
      "byteOffset": 2395056,
      "componentType": 5126,
      "count": 65532,
      "max": [
        1.061900019645691,
        0.2797529995441437,
        0.7859929800033569
      ],
      "min": [
        -1.0737600326538086,
        -0.2671020030975342,
        -1.2051199674606323
      ],
      "type": "VEC3"
    },
    {
      "bufferView": 2,
      "byteOffset": 3181440,
      "componentType": 5126,
      "count": 65532,
      "max": [
        0.9999954104423523,
        1.0,
        0.9999953508377075
      ],
      "min": [
        -0.9999897480010986,
        -1.0,
        -1.0
      ],
      "type": "VEC3"
    },
    {
      "bufferView": 3,
      "byteOffset": 1596704,
      "componentType": 5126,
      "count": 65532,
      "max": [
        1.0,
        0.9999899864196777,
        1.0,
        1.0
      ],
      "min": [
        -1.0,
        -0.9999688863754272,
        -1.0,
        -1.0
      ],
      "type": "VEC4"
    },
    {
      "bufferView": 1,
      "byteOffset": 798352,
      "componentType": 5126,
      "count": 65532,
      "max": [
        2.1074600219726563,
        1.0
      ],
      "min": [
        0.0,
        -1.0023499727249146
      ],
      "type": "VEC2"
    },
    {
      "bufferView": 0,
      "byteOffset": 1759740,
      "componentType": 5125,
      "count": 295008,
      "type": "SCALAR"
    },
    {
      "bufferView": 2,
      "byteOffset": 3967824,
      "componentType": 5126,
      "count": 33748,
      "max": [
        1.0621399879455566,
        0.2749269902706146,
        0.7859929800033569
      ],
      "min": [
        -1.0737600326538086,
        -0.2671020030975342,
        -1.2051199674606323
      ],
      "type": "VEC3"
    },
    {
      "bufferView": 2,
      "byteOffset": 4372800,
      "componentType": 5126,
      "count": 33748,
      "max": [
        0.9999988079071045,
        0.9999999403953552,
        0.9999988675117493
      ],
      "min": [
        -0.9999956488609314,
        -1.0,
        -1.0
      ],
      "type": "VEC3"
    },
    {
      "bufferView": 3,
      "byteOffset": 2645216,
      "componentType": 5126,
      "count": 33748,
      "max": [
        1.0,
        0.9999263286590576,
        1.0,
        1.0
      ],
      "min": [
        -1.0,
        -0.9999784827232361,
        -1.0,
        -1.0
      ],
      "type": "VEC4"
    },
    {
      "bufferView": 1,
      "byteOffset": 1322608,
      "componentType": 5126,
      "count": 33748,
      "max": [
        1.0,
        1.0
      ],
      "min": [
        0.0,
        0.0
      ],
      "type": "VEC2"
    },
    {
      "bufferView": 0,
      "byteOffset": 2939772,
      "componentType": 5125,
      "count": 95436,
      "type": "SCALAR"
    },
    {
      "bufferView": 2,
      "byteOffset": 4777776,
      "componentType": 5126,
      "count": 461,
      "max": [
        1.2410800457000732,
        0.2671020030975342,
        0.7859929800033569
      ],
      "min": [
        -1.2410800457000732,
        -0.2671020030975342,
        -1.2051199674606323
      ],
      "type": "VEC3"
    },
    {
      "bufferView": 2,
      "byteOffset": 4783308,
      "componentType": 5126,
      "count": 461,
      "max": [
        1.0,
        1.0,
        0.9950557351112366
      ],
      "min": [
        -1.0,
        -1.0,
        -1.0
      ],
      "type": "VEC3"
    },
    {
      "bufferView": 3,
      "byteOffset": 3185184,
      "componentType": 5126,
      "count": 461,
      "max": [
        1.0,
        1.0,
        1.0,
        1.0
      ],
      "min": [
        -1.0,
        -1.0,
        -1.0,
        1.0
      ],
      "type": "VEC4"
    },
    {
      "bufferView": 1,
      "byteOffset": 1592592,
      "componentType": 5126,
      "count": 461,
      "max": [
        0.0,
        1.0
      ],
      "min": [
        0.0,
        1.0
      ],
      "type": "VEC2"
    },
    {
      "bufferView": 0,
      "byteOffset": 3321516,
      "componentType": 5125,
      "count": 1326,
      "type": "SCALAR"
    },
    {
      "bufferView": 2,
      "byteOffset": 4788840,
      "componentType": 5126,
      "count": 58,
      "max": [
        1.216249942779541,
        0.22943900525569916,
        0.7447789907455444
      ],
      "min": [
        -1.216249942779541,
        -0.22943900525569916,
        -1.1750400066375732
      ],
      "type": "VEC3"
    },
    {
      "bufferView": 2,
      "byteOffset": 4789536,
      "componentType": 5126,
      "count": 58,
      "max": [
        1.0,
        1.0,
        0.9987082481384277
      ],
      "min": [
        -1.0,
        -1.0,
        -1.0
      ],
      "type": "VEC3"
    },
    {
      "bufferView": 3,
      "byteOffset": 3192560,
      "componentType": 5126,
      "count": 58,
      "max": [
        0.0,
        1.0,
        1.0,
        1.0
      ],
      "min": [
        0.0,
        -1.0,
        -1.0,
        -1.0
      ],
      "type": "VEC4"
    },
    {
      "bufferView": 1,
      "byteOffset": 1596280,
      "componentType": 5126,
      "count": 58,
      "max": [
        9.090909957885742,
        1.8835599422454834
      ],
      "min": [
        0.0,
        1.0964399576187134
      ],
      "type": "VEC2"
    },
    {
      "bufferView": 0,
      "byteOffset": 3326820,
      "componentType": 5125,
      "count": 132,
      "type": "SCALAR"
    },
    {
      "bufferView": 2,
      "byteOffset": 4790232,
      "componentType": 5126,
      "count": 25,
      "max": [
        0.7780100107192993,
        0.2797529995441437,
        0.6479550004005432
      ],
      "min": [
        0.462334007024765,
        0.2531540095806122,
        -0.39125698804855347
      ],
      "type": "VEC3"
    },
    {
      "bufferView": 2,
      "byteOffset": 4790532,
      "componentType": 5126,
      "count": 25,
      "max": [
        0.2924857437610626,
        1.0,
        0.35116279125213623
      ],
      "min": [
        0.0,
        -1.0,
        -0.9807019829750061
      ],
      "type": "VEC3"
    },
    {
      "bufferView": 1,
      "byteOffset": 1596744,
      "componentType": 5126,
      "count": 25,
      "max": [
        0.0,
        1.0
      ],
      "min": [
        0.0,
        1.0
      ],
      "type": "VEC2"
    },
    {
      "bufferView": 0,
      "byteOffset": 3327348,
      "componentType": 5125,
      "count": 57,
      "type": "SCALAR"
    },
    {
      "bufferView": 2,
      "byteOffset": 4790832,
      "componentType": 5126,
      "count": 65532,
      "max": [
        2.9438700675964355,
        1.0099400281906128,
        3.8312699794769287
      ],
      "min": [
        -2.966130018234253,
        -1.7234300374984741,
        -3.8487300872802734
      ],
      "type": "VEC3"
    },
    {
      "bufferView": 2,
      "byteOffset": 5577216,
      "componentType": 5126,
      "count": 65532,
      "max": [
        1.0,
        1.0,
        1.0
      ],
      "min": [
        -1.0,
        -1.0,
        -1.0
      ],
      "type": "VEC3"
    },
    {
      "bufferView": 3,
      "byteOffset": 3193488,
      "componentType": 5126,
      "count": 65532,
      "max": [
        1.0,
        0.8303688764572144,
        1.0,
        1.0
      ],
      "min": [
        -1.0,
        -0.8303662538528442,
        -1.0,
        -1.0
      ],
      "type": "VEC4"
    },
    {
      "bufferView": 1,
      "byteOffset": 1596944,
      "componentType": 5126,
      "count": 65532,
      "max": [
        1.0,
        1.0
      ],
      "min": [
        0.0,
        -0.587302029132843
      ],
      "type": "VEC2"
    },
    {
      "bufferView": 0,
      "byteOffset": 3327576,
      "componentType": 5125,
      "count": 379023,
      "type": "SCALAR"
    },
    {
      "bufferView": 2,
      "byteOffset": 6363600,
      "componentType": 5126,
      "count": 65532,
      "max": [
        2.7064099311828613,
        0.9012010097503662,
        3.5408499240875244
      ],
      "min": [
        -2.701859951019287,
        -1.7234300374984741,
        -3.5218300819396973
      ],
      "type": "VEC3"
    },
    {
      "bufferView": 2,
      "byteOffset": 7149984,
      "componentType": 5126,
      "count": 65532,
      "max": [
        1.0,
        1.0,
        1.0
      ],
      "min": [
        -1.0,
        -1.0,
        -1.0
      ],
      "type": "VEC3"
    },
    {
      "bufferView": 3,
      "byteOffset": 4242000,
      "componentType": 5126,
      "count": 65532,
      "max": [
        1.0,
        0.8307015895843506,
        1.0,
        1.0
      ],
      "min": [
        -1.0,
        -0.8303626775741577,
        -1.0,
        -1.0
      ],
      "type": "VEC4"
    },
    {
      "bufferView": 1,
      "byteOffset": 2121200,
      "componentType": 5126,
      "count": 65532,
      "max": [
        1.0,
        1.0
      ],
      "min": [
        0.0,
        0.0
      ],
      "type": "VEC2"
    },
    {
      "bufferView": 0,
      "byteOffset": 4843668,
      "componentType": 5125,
      "count": 372183,
      "type": "SCALAR"
    },
    {
      "bufferView": 2,
      "byteOffset": 7936368,
      "componentType": 5126,
      "count": 4794,
      "max": [
        -2.3473598957061768,
        0.4852150082588196,
        3.5190200805664063
      ],
      "min": [
        -2.68789005279541,
        -1.6600099802017212,
        3.1695799827575684
      ],
      "type": "VEC3"
    },
    {
      "bufferView": 2,
      "byteOffset": 7993896,
      "componentType": 5126,
      "count": 4794,
      "max": [
        1.0,
        0.9706247448921204,
        0.9999954700469971
      ],
      "min": [
        -1.0,
        -0.9775053858757019,
        -1.0
      ],
      "type": "VEC3"
    },
    {
      "bufferView": 3,
      "byteOffset": 5290512,
      "componentType": 5126,
      "count": 4794,
      "max": [
        1.0,
        0.8307062387466431,
        1.0,
        1.0
      ],
      "min": [
        -1.0,
        -0.8303685188293457,
        -1.0,
        -1.0
      ],
      "type": "VEC4"
    },
    {
      "bufferView": 1,
      "byteOffset": 2645456,
      "componentType": 5126,
      "count": 4794,
      "max": [
        1.0,
        0.9192759990692139
      ],
      "min": [
        0.0,
        0.08412930369377136
      ],
      "type": "VEC2"
    },
    {
      "bufferView": 0,
      "byteOffset": 6332400,
      "componentType": 5125,
      "count": 24654,
      "type": "SCALAR"
    },
    {
      "bufferView": 2,
      "byteOffset": 8051424,
      "componentType": 5126,
      "count": 20248,
      "max": [
        0.7217869758605957,
        0.05685320124030113,
        0.7299450039863586
      ],
      "min": [
        -0.7340580224990845,
        -1.258620023727417,
        -0.7258999943733215
      ],
      "type": "VEC3"
    },
    {
      "bufferView": 2,
      "byteOffset": 8294400,
      "componentType": 5126,
      "count": 20248,
      "max": [
        1.0,
        1.0,
        1.0
      ],
      "min": [
        -1.0,
        -1.0,
        -1.0
      ],
      "type": "VEC3"
    },
    {
      "bufferView": 3,
      "byteOffset": 5367216,
      "componentType": 5126,
      "count": 20248,
      "max": [
        1.0,
        0.02649652399122715,
        1.0,
        1.0
      ],
      "min": [
        -1.0,
        -0.025877315551042557,
        -1.0,
        1.0
      ],
      "type": "VEC4"
    },
    {
      "bufferView": 1,
      "byteOffset": 2683808,
      "componentType": 5126,
      "count": 20248,
      "max": [
        1.0,
        1.0
      ],
      "min": [
        0.0,
        0.0
      ],
      "type": "VEC2"
    },
    {
      "bufferView": 0,
      "byteOffset": 6431016,
      "componentType": 5125,
      "count": 115152,
      "type": "SCALAR"
    },
    {
      "bufferView": 2,
      "byteOffset": 8537376,
      "componentType": 5126,
      "count": 33644,
      "max": [
        0.14604300260543823,
        0.8276209831237793,
        0.14659400284290314
      ],
      "min": [
        -0.1404609978199005,
        -0.9169819951057434,
        -0.1399099975824356
      ],
      "type": "VEC3"
    },
    {
      "bufferView": 2,
      "byteOffset": 8941104,
      "componentType": 5126,
      "count": 33644,
      "max": [
        1.0,
        1.0,
        1.0
      ],
      "min": [
        -1.0,
        -1.0,
        -1.0
      ],
      "type": "VEC3"
    },
    {
      "bufferView": 3,
      "byteOffset": 5691184,
      "componentType": 5126,
      "count": 33644,
      "max": [
        1.0,
        0.9868192076683044,
        1.0,
        1.0
      ],
      "min": [
        -1.0,
        -0.9868156313896179,
        -1.0,
        -1.0
      ],
      "type": "VEC4"
    },
    {
      "bufferView": 1,
      "byteOffset": 2845792,
      "componentType": 5126,
      "count": 33644,
      "max": [
        1.0,
        1.0
      ],
      "min": [
        0.0,
        0.0
      ],
      "type": "VEC2"
    },
    {
      "bufferView": 0,
      "byteOffset": 6891624,
      "componentType": 5125,
      "count": 193920,
      "type": "SCALAR"
    },
    {
      "bufferView": 2,
      "byteOffset": 9344832,
      "componentType": 5126,
      "count": 85,
      "max": [
        1.371440052986145,
        1.4473999738693237,
        1.3795900344848633
      ],
      "min": [
        -1.3837100267410278,
        0.39170199632644653,
        -1.3755500316619873
      ],
      "type": "VEC3"
    },
    {
      "bufferView": 2,
      "byteOffset": 9345852,
      "componentType": 5126,
      "count": 85,
      "max": [
        0.7390695810317993,
        0.6736291646957397,
        0.7390695810317993
      ],
      "min": [
        -0.7390695810317993,
        0.6736122965812683,
        -0.7390695810317993
      ],
      "type": "VEC3"
    },
    {
      "bufferView": 3,
      "byteOffset": 6229488,
      "componentType": 5126,
      "count": 85,
      "max": [
        0.999955415725708,
        0.09815701842308044,
        0.999955415725708,
        1.0
      ],
      "min": [
        -0.9999554753303528,
        -0.09816104918718338,
        -0.991142213344574,
        1.0
      ],
      "type": "VEC4"
    },
    {
      "bufferView": 1,
      "byteOffset": 3114944,
      "componentType": 5126,
      "count": 85,
      "max": [
        0.6666669845581055,
        1.0
      ],
      "min": [
        0.0,
        0.33333298563957214
      ],
      "type": "VEC2"
    },
    {
      "bufferView": 0,
      "byteOffset": 7667304,
      "componentType": 5125,
      "count": 384,
      "type": "SCALAR"
    },
    {
      "bufferView": 2,
      "byteOffset": 9346872,
      "componentType": 5126,
      "count": 6220,
      "max": [
        0.7079870104789734,
        -0.5980830192565918,
        0.7161449790000916
      ],
      "min": [
        -0.7202579975128174,
        -1.476539969444275,
        -0.7121000289916992
      ],
      "type": "VEC3"
    },
    {
      "bufferView": 2,
      "byteOffset": 9421512,
      "componentType": 5126,
      "count": 6220,
      "max": [
        1.0,
        1.0,
        1.0
      ],
      "min": [
        -1.0,
        -1.0,
        -1.0
      ],
      "type": "VEC3"
    },
    {
      "bufferView": 3,
      "byteOffset": 6230848,
      "componentType": 5126,
      "count": 6220,
      "max": [
        1.0,
        0.02612663060426712,
        1.0,
        1.0
      ],
      "min": [
        -1.0,
        -0.026127878576517105,
        -1.0,
        1.0
      ],
      "type": "VEC4"
    },
    {
      "bufferView": 1,
      "byteOffset": 3115624,
      "componentType": 5126,
      "count": 6220,
      "max": [
        2.9411799907684326,
        1.0
      ],
      "min": [
        0.0,
        -0.8518519997596741
      ],
      "type": "VEC2"
    },
    {
      "bufferView": 0,
      "byteOffset": 7668840,
      "componentType": 5125,
      "count": 36000,
      "type": "SCALAR"
    },
    {
      "bufferView": 2,
      "byteOffset": 9496152,
      "componentType": 5126,
      "count": 151,
      "max": [
        0.22769999504089355,
        0.22769999504089355,
        0.22769999504089355
      ],
      "min": [
        -0.22769999504089355,
        -0.22769999504089355,
        -0.22769999504089355
      ],
      "type": "VEC3"
    },
    {
      "bufferView": 2,
      "byteOffset": 9497964,
      "componentType": 5126,
      "count": 151,
      "max": [
        1.0,
        1.0,
        1.0
      ],
      "min": [
        -1.0,
        -1.0,
        -1.0
      ],
      "type": "VEC3"
    },
    {
      "bufferView": 1,
      "byteOffset": 3165384,
      "componentType": 5126,
      "count": 151,
      "max": [
        1.0,
        1.0
      ],
      "min": [
        0.0,
        0.0
      ],
      "type": "VEC2"
    },
    {
      "bufferView": 0,
      "byteOffset": 7812840,
      "componentType": 5125,
      "count": 672,
      "type": "SCALAR"
    },
    {
      "bufferView": 2,
      "byteOffset": 9499776,
      "componentType": 5126,
      "count": 32,
      "max": [
        12.13599967956543,
        5.778240203857422,
        8.845390319824219
      ],
      "min": [
        -12.027700424194336,
        -3.1079699993133545,
        -12.126299858093262
      ],
      "type": "VEC3"
    },
    {
      "bufferView": 2,
      "byteOffset": 9500160,
      "componentType": 5126,
      "count": 32,
      "max": [
        0.9958074688911438,
        0.0,
        0.9855554103851318
      ],
      "min": [
        -0.9692406058311462,
        0.0,
        -0.5555219650268555
      ],
      "type": "VEC3"
    },
    {
      "bufferView": 3,
      "byteOffset": 6330368,
      "componentType": 5126,
      "count": 32,
      "max": [
        0.5555219054222107,
        0.0,
        0.9958074688911438,
        1.0
      ],
      "min": [
        -0.9855554699897766,
        0.0,
        -0.9692404866218567,
        1.0
      ],
      "type": "VEC4"
    },
    {
      "bufferView": 1,
      "byteOffset": 3166592,
      "componentType": 5126,
      "count": 32,
      "max": [
        9.964119911193848,
        0.5178700089454651
      ],
      "min": [
        0.03646070137619972,
        -1.5187599658966064
      ],
      "type": "VEC2"
    },
    {
      "bufferView": 0,
      "byteOffset": 7815528,
      "componentType": 5125,
      "count": 48,
      "type": "SCALAR"
    },
    {
      "bufferView": 2,
      "byteOffset": 9500544,
      "componentType": 5126,
      "count": 663,
      "max": [
        13.67650032043457,
        6.485060214996338,
        9.984060287475586
      ],
      "min": [
        -13.575400352478027,
        -6.059999942779541,
        -13.702199935913086
      ],
      "type": "VEC3"
    },
    {
      "bufferView": 2,
      "byteOffset": 9508500,
      "componentType": 5126,
      "count": 663,
      "max": [
        0.9958074688911438,
        1.0,
        1.0
      ],
      "min": [
        -0.9982864260673523,
        -1.0,
        -0.9969212412834167
      ],
      "type": "VEC3"
    },
    {
      "bufferView": 3,
      "byteOffset": 6330880,
      "componentType": 5126,
      "count": 663,
      "max": [
        1.0,
        1.0,
        1.0,
        1.0
      ],
      "min": [
        -1.0,
        -1.0,
        -1.0,
        -1.0
      ],
      "type": "VEC4"
    },
    {
      "bufferView": 1,
      "byteOffset": 3166848,
      "componentType": 5126,
      "count": 663,
      "max": [
        8.333330154418945,
        2.640000104904175
      ],
      "min": [
        0.0,
        -1.3600000143051147
      ],
      "type": "VEC2"
    },
    {
      "bufferView": 0,
      "byteOffset": 7815720,
      "componentType": 5125,
      "count": 2043,
      "type": "SCALAR"
    },
    {
      "bufferView": 2,
      "byteOffset": 9516456,
      "componentType": 5126,
      "count": 45,
      "max": [
        16.0,
        0.0,
        16.0
      ],
      "min": [
        -16.0,
        0.0,
        -16.0
      ],
      "type": "VEC3"
    },
    {
      "bufferView": 2,
      "byteOffset": 9516996,
      "componentType": 5126,
      "count": 45,
      "max": [
        0.0,
        1.0,
        -0.0
      ],
      "min": [
        0.0,
        1.0,
        -0.0
      ],
      "type": "VEC3"
    },
    {
      "bufferView": 3,
      "byteOffset": 6341488,
      "componentType": 5126,
      "count": 45,
      "max": [
        1.0,
        0.0,
        9.421052709512878e-06,
        1.0
      ],
      "min": [
        1.0,
        0.0,
        -9.444398529012688e-06,
        1.0
      ],
      "type": "VEC4"
    },
    {
      "bufferView": 1,
      "byteOffset": 3172152,
      "componentType": 5126,
      "count": 45,
      "max": [
        4.166669845581055,
        1.0
      ],
      "min": [
        0.0,
        -3.54544997215271
      ],
      "type": "VEC2"
    },
    {
      "bufferView": 0,
      "byteOffset": 7823892,
      "componentType": 5125,
      "count": 132,
      "type": "SCALAR"
    },
    {
      "bufferView": 2,
      "byteOffset": 9517536,
      "componentType": 5126,
      "count": 65532,
      "max": [
        1.9879599809646606,
        1.4589999914169312,
        2.3380300998687744
      ],
      "min": [
        -1.4097000360488892,
        -1.977579951286316,
        -1.1876300573349
      ],
      "type": "VEC3"
    },
    {
      "bufferView": 2,
      "byteOffset": 10303920,
      "componentType": 5126,
      "count": 65532,
      "max": [
        0.9999982118606567,
        1.0,
        0.9999983310699463
      ],
      "min": [
        -0.9999982118606567,
        -1.0,
        -0.9999983310699463
      ],
      "type": "VEC3"
    },
    {
      "bufferView": 3,
      "byteOffset": 6342208,
      "componentType": 5126,
      "count": 65532,
      "max": [
        0.9999998807907104,
        0.9978030323982239,
        0.9999998807907104,
        1.0
      ],
      "min": [
        -0.9999998807907104,
        -0.9978030323982239,
        -0.9999998807907104,
        -1.0
      ],
      "type": "VEC4"
    },
    {
      "bufferView": 1,
      "byteOffset": 3172512,
      "componentType": 5126,
      "count": 65532,
      "max": [
        1.0,
        1.2699999809265137
      ],
      "min": [
        -0.6899999976158142,
        0.0
      ],
      "type": "VEC2"
    },
    {
      "bufferView": 0,
      "byteOffset": 7824420,
      "componentType": 5125,
      "count": 375012,
      "type": "SCALAR"
    },
    {
      "bufferView": 2,
      "byteOffset": 11090304,
      "componentType": 5126,
      "count": 3259,
      "max": [
        0.1476369947195053,
        0.06175209954380989,
        2.0306499004364014
      ],
      "min": [
        -0.0729290023446083,
        -1.806380033493042,
        1.8100800514221191
      ],
      "type": "VEC3"
    },
    {
      "bufferView": 2,
      "byteOffset": 11129412,
      "componentType": 5126,
      "count": 3259,
      "max": [
        0.9999830722808838,
        0.44265881180763245,
        0.9999877214431763
      ],
      "min": [
        -0.9999877214431763,
        -0.9775047898292542,
        -0.9999830722808838
      ],
      "type": "VEC3"
    },
    {
      "bufferView": 3,
      "byteOffset": 7390720,
      "componentType": 5126,
      "count": 3259,
      "max": [
        0.9999919533729553,
        0.8454914093017578,
        0.9999977350234985,
        1.0
      ],
      "min": [
        -0.9999914765357971,
        -0.845937192440033,
        -0.9999935030937195,
        -1.0
      ],
      "type": "VEC4"
    },
    {
      "bufferView": 1,
      "byteOffset": 3696768,
      "componentType": 5126,
      "count": 3259,
      "max": [
        1.0,
        0.7111899852752686
      ],
      "min": [
        0.0,
        0.222353994846344
      ],
      "type": "VEC2"
    },
    {
      "bufferView": 0,
      "byteOffset": 9324468,
      "componentType": 5125,
      "count": 16500,
      "type": "SCALAR"
    },
    {
      "bufferView": 2,
      "byteOffset": 11168520,
      "componentType": 5126,
      "count": 323,
      "max": [
        0.2208700031042099,
        0.2208700031042099,
        0.2208700031042099
      ],
      "min": [
        -0.2208700031042099,
        -0.2208700031042099,
        -0.2208700031042099
      ],
      "type": "VEC3"
    },
    {
      "bufferView": 2,
      "byteOffset": 11172396,
      "componentType": 5126,
      "count": 323,
      "max": [
        1.0,
        1.0,
        1.0
      ],
      "min": [
        -1.0,
        -1.0,
        -1.0
      ],
      "type": "VEC3"
    },
    {
      "bufferView": 1,
      "byteOffset": 3722840,
      "componentType": 5126,
      "count": 323,
      "max": [
        1.0,
        1.0
      ],
      "min": [
        0.0,
        0.0
      ],
      "type": "VEC2"
    },
    {
      "bufferView": 0,
      "byteOffset": 9390468,
      "componentType": 5125,
      "count": 1584,
      "type": "SCALAR"
    },
    {
      "bufferView": 2,
      "byteOffset": 11176272,
      "componentType": 5126,
      "count": 1884,
      "max": [
        0.8504549860954285,
        1.1244800090789795,
        0.19010800123214722
      ],
      "min": [
        -0.9547449946403503,
        -0.348345011472702,
        -0.14902199804782867
      ],
      "type": "VEC3"
    },
    {
      "bufferView": 2,
      "byteOffset": 11198880,
      "componentType": 5126,
      "count": 1884,
      "max": [
        1.0,
        1.0,
        0.9980272650718689
      ],
      "min": [
        -1.0,
        -1.0,
        -0.9980272650718689
      ],
      "type": "VEC3"
    },
    {
      "bufferView": 3,
      "byteOffset": 7442864,
      "componentType": 5126,
      "count": 1884,
      "max": [
        1.0,
        0.9996747970581055,
        1.0,
        1.0
      ],
      "min": [
        -1.0,
        -0.9995386004447937,
        -1.0,
        -1.0
      ],
      "type": "VEC4"
    },
    {
      "bufferView": 1,
      "byteOffset": 3725424,
      "componentType": 5126,
      "count": 1884,
      "max": [
        1.0,
        1.0
      ],
      "min": [
        0.0,
        0.0
      ],
      "type": "VEC2"
    },
    {
      "bufferView": 0,
      "byteOffset": 9396804,
      "componentType": 5125,
      "count": 7896,
      "type": "SCALAR"
    },
    {
      "bufferView": 2,
      "byteOffset": 11221488,
      "componentType": 5126,
      "count": 503,
      "max": [
        0.5885509848594666,
        0.6530069708824158,
        0.5097000002861023
      ],
      "min": [
        -0.5885509848594666,
        -0.3420940041542053,
        -0.5097000002861023
      ],
      "type": "VEC3"
    },
    {
      "bufferView": 2,
      "byteOffset": 11227524,
      "componentType": 5126,
      "count": 503,
      "max": [
        1.0,
        1.0,
        1.0
      ],
      "min": [
        -1.0,
        -1.0,
        -1.0
      ],
      "type": "VEC3"
    },
    {
      "bufferView": 3,
      "byteOffset": 7473008,
      "componentType": 5126,
      "count": 503,
      "max": [
        1.0,
        1.0,
        1.0,
        1.0
      ],
      "min": [
        -1.0,
        -1.0,
        -1.0,
        -1.0
      ],
      "type": "VEC4"
    },
    {
      "bufferView": 1,
      "byteOffset": 3740496,
      "componentType": 5126,
      "count": 503,
      "max": [
        3.8461499214172363,
        -0.1764950007200241
      ],
      "min": [
        -0.0029614800587296486,
        -1.4691400527954102
      ],
      "type": "VEC2"
    },
    {
      "bufferView": 0,
      "byteOffset": 9428388,
      "componentType": 5125,
      "count": 1545,
      "type": "SCALAR"
    },
    {
      "bufferView": 2,
      "byteOffset": 11233560,
      "componentType": 5126,
      "count": 24,
      "max": [
        0.5473210215568542,
        0.29600998759269714,
        0.47979798913002014
      ],
      "min": [
        -0.5467060208320618,
        -0.30354800820350647,
        -0.47979798913002014
      ],
      "type": "VEC3"
    },
    {
      "bufferView": 2,
      "byteOffset": 11233848,
      "componentType": 5126,
      "count": 24,
      "max": [
        0.866019070148468,
        0.0,
        1.0
      ],
      "min": [
        -0.866019070148468,
        0.0,
        -1.0
      ],
      "type": "VEC3"
    },
    {
      "bufferView": 1,
      "byteOffset": 3744520,
      "componentType": 5126,
      "count": 24,
      "max": [
        0.9884799718856812,
        0.6451879739761353
      ],
      "min": [
        0.00868418999016285,
        0.35111498832702637
      ],
      "type": "VEC2"
    },
    {
      "bufferView": 0,
      "byteOffset": 9434568,
      "componentType": 5125,
      "count": 36,
      "type": "SCALAR"
    },
    {
      "bufferView": 2,
      "byteOffset": 11234136,
      "componentType": 5126,
      "count": 323,
      "max": [
        0.2208700031042099,
        0.2208700031042099,
        0.2208700031042099
      ],
      "min": [
        -0.2208700031042099,
        -0.2208700031042099,
        -0.2208700031042099
      ],
      "type": "VEC3"
    },
    {
      "bufferView": 2,
      "byteOffset": 11238012,
      "componentType": 5126,
      "count": 323,
      "max": [
        1.0,
        1.0,
        1.0
      ],
      "min": [
        -1.0,
        -1.0,
        -1.0
      ],
      "type": "VEC3"
    },
    {
      "bufferView": 1,
      "byteOffset": 3744712,
      "componentType": 5126,
      "count": 323,
      "max": [
        1.0,
        1.0
      ],
      "min": [
        0.0,
        0.0
      ],
      "type": "VEC2"
    },
    {
      "bufferView": 0,
      "byteOffset": 9434712,
      "componentType": 5125,
      "count": 1584,
      "type": "SCALAR"
    },
    {
      "bufferView": 2,
      "byteOffset": 11241888,
      "componentType": 5126,
      "count": 1884,
      "max": [
        0.8504549860954285,
        1.1244800090789795,
        0.19010800123214722
      ],
      "min": [
        -0.9547449946403503,
        -0.348345011472702,
        -0.14902199804782867
      ],
      "type": "VEC3"
    },
    {
      "bufferView": 2,
      "byteOffset": 11264496,
      "componentType": 5126,
      "count": 1884,
      "max": [
        1.0,
        1.0,
        0.9980272650718689
      ],
      "min": [
        -1.0,
        -1.0,
        -0.9980272650718689
      ],
      "type": "VEC3"
    },
    {
      "bufferView": 3,
      "byteOffset": 7481056,
      "componentType": 5126,
      "count": 1884,
      "max": [
        1.0,
        0.9996747970581055,
        1.0,
        1.0
      ],
      "min": [
        -1.0,
        -0.9995386004447937,
        -1.0,
        -1.0
      ],
      "type": "VEC4"
    },
    {
      "bufferView": 1,
      "byteOffset": 3747296,
      "componentType": 5126,
      "count": 1884,
      "max": [
        1.0,
        1.0
      ],
      "min": [
        0.0,
        0.0
      ],
      "type": "VEC2"
    },
    {
      "bufferView": 0,
      "byteOffset": 9441048,
      "componentType": 5125,
      "count": 7896,
      "type": "SCALAR"
    },
    {
      "bufferView": 2,
      "byteOffset": 11287104,
      "componentType": 5126,
      "count": 503,
      "max": [
        0.5885509848594666,
        0.6530069708824158,
        0.5097000002861023
      ],
      "min": [
        -0.5885509848594666,
        -0.3420940041542053,
        -0.5097000002861023
      ],
      "type": "VEC3"
    },
    {
      "bufferView": 2,
      "byteOffset": 11293140,
      "componentType": 5126,
      "count": 503,
      "max": [
        1.0,
        1.0,
        1.0
      ],
      "min": [
        -1.0,
        -1.0,
        -1.0
      ],
      "type": "VEC3"
    },
    {
      "bufferView": 3,
      "byteOffset": 7511200,
      "componentType": 5126,
      "count": 503,
      "max": [
        1.0,
        1.0,
        1.0,
        1.0
      ],
      "min": [
        -1.0,
        -1.0,
        -1.0,
        -1.0
      ],
      "type": "VEC4"
    },
    {
      "bufferView": 1,
      "byteOffset": 3762368,
      "componentType": 5126,
      "count": 503,
      "max": [
        3.8461499214172363,
        -0.1764950007200241
      ],
      "min": [
        -0.0029614800587296486,
        -1.4691400527954102
      ],
      "type": "VEC2"
    },
    {
      "bufferView": 0,
      "byteOffset": 9472632,
      "componentType": 5125,
      "count": 1545,
      "type": "SCALAR"
    },
    {
      "bufferView": 2,
      "byteOffset": 11299176,
      "componentType": 5126,
      "count": 24,
      "max": [
        0.5473210215568542,
        0.29600998759269714,
        0.47979798913002014
      ],
      "min": [
        -0.5467060208320618,
        -0.30354800820350647,
        -0.47979798913002014
      ],
      "type": "VEC3"
    },
    {
      "bufferView": 2,
      "byteOffset": 11299464,
      "componentType": 5126,
      "count": 24,
      "max": [
        0.866019070148468,
        0.0,
        1.0
      ],
      "min": [
        -0.866019070148468,
        0.0,
        -1.0
      ],
      "type": "VEC3"
    },
    {
      "bufferView": 1,
      "byteOffset": 3766392,
      "componentType": 5126,
      "count": 24,
      "max": [
        0.9884799718856812,
        0.6451879739761353
      ],
      "min": [
        0.00868418999016285,
        0.35111498832702637
      ],
      "type": "VEC2"
    },
    {
      "bufferView": 0,
      "byteOffset": 9478812,
      "componentType": 5125,
      "count": 36,
      "type": "SCALAR"
    },
    {
      "bufferView": 2,
      "byteOffset": 11299752,
      "componentType": 5126,
      "count": 8196,
      "max": [
        5.209350109100342,
        5.014639854431152,
        1.4963899850845337
      ],
      "min": [
        0.004552510101348162,
        0.0,
        -0.25668400526046753
      ],
      "type": "VEC3"
    },
    {
      "bufferView": 2,
      "byteOffset": 11398104,
      "componentType": 5126,
      "count": 8196,
      "max": [
        0.999966561794281,
        1.0,
        0.9999675750732422
      ],
      "min": [
        -0.999945878982544,
        -1.0,
        -0.9964472055435181
      ],
      "type": "VEC3"
    },
    {
      "bufferView": 3,
      "byteOffset": 7519248,
      "componentType": 5126,
      "count": 8196,
      "max": [
        0.9999911785125732,
        1.0,
        0.9999423623085022,
        1.0
      ],
      "min": [
        -0.999967634677887,
        -1.0,
        -0.999945878982544,
        -1.0
      ],
      "type": "VEC4"
    },
    {
      "bufferView": 1,
      "byteOffset": 3766584,
      "componentType": 5126,
      "count": 8196,
      "max": [
        1.0,
        1.0
      ],
      "min": [
        0.0,
        -4.0
      ],
      "type": "VEC2"
    },
    {
      "bufferView": 0,
      "byteOffset": 9478956,
      "componentType": 5125,
      "count": 30312,
      "type": "SCALAR"
    },
    {
      "bufferView": 2,
      "byteOffset": 11496456,
      "componentType": 5126,
      "count": 602,
      "max": [
        4.900169849395752,
        4.676990032196045,
        1.4588199853897095
      ],
      "min": [
        0.2467930018901825,
        0.2975350022315979,
        -0.13557299971580505
      ],
      "type": "VEC3"
    },
    {
      "bufferView": 2,
      "byteOffset": 11503680,
      "componentType": 5126,
      "count": 602,
      "max": [
        0.9702747464179993,
        1.0,
        0.9599229097366333
      ],
      "min": [
        -0.9726332426071167,
        -1.0,
        -0.9605470895767212
      ],
      "type": "VEC3"
    },
    {
      "bufferView": 1,
      "byteOffset": 3832152,
      "componentType": 5126,
      "count": 602,
      "max": [
        1.0,
        1.0
      ],
      "min": [
        0.0,
        0.0
      ],
      "type": "VEC2"
    },
    {
      "bufferView": 0,
      "byteOffset": 9600204,
      "componentType": 5125,
      "count": 1224,
      "type": "SCALAR"
    },
    {
      "bufferView": 2,
      "byteOffset": 11510904,
      "componentType": 5126,
      "count": 1064,
      "max": [
        4.879590034484863,
        4.676990032196045,
        1.2679500579833984
      ],
      "min": [
        0.35227200388908386,
        0.2975350022315979,
        -0.10185600072145462
      ],
      "type": "VEC3"
    },
    {
      "bufferView": 2,
      "byteOffset": 11523672,
      "componentType": 5126,
      "count": 1064,
      "max": [
        0.9997437596321106,
        1.0,
        0.9997460246086121
      ],
      "min": [
        -0.9997509717941284,
        -1.0,
        -0.9997462034225464
      ],
      "type": "VEC3"
    },
    {
      "bufferView": 1,
      "byteOffset": 3836968,
      "componentType": 5126,
      "count": 1064,
      "max": [
        1.0,
        1.0
      ],
      "min": [
        0.0,
        0.0
      ],
      "type": "VEC2"
    },
    {
      "bufferView": 0,
      "byteOffset": 9605100,
      "componentType": 5125,
      "count": 4800,
      "type": "SCALAR"
    },
    {
      "bufferView": 2,
      "byteOffset": 11536440,
      "componentType": 5126,
      "count": 14336,
      "max": [
        5.134479999542236,
        4.877570152282715,
        1.242400050163269
      ],
      "min": [
        0.146124005317688,
        0.09694969654083252,
        -0.24316999316215515
      ],
      "type": "VEC3"
    },
    {
      "bufferView": 2,
      "byteOffset": 11708472,
      "componentType": 5126,
      "count": 14336,
      "max": [
        0.999977707862854,
        1.0,
        0.9998219013214111
      ],
      "min": [
        -0.9997949600219727,
        -1.0,
        -0.9999082684516907
      ],
      "type": "VEC3"
    },
    {
      "bufferView": 3,
      "byteOffset": 7650384,
      "componentType": 5126,
      "count": 14336,
      "max": [
        1.0,
        1.0,
        0.9999761581420898,
        1.0
      ],
      "min": [
        -1.0,
        -1.0,
        -0.9999758005142212,
        -1.0
      ],
      "type": "VEC4"
    },
    {
      "bufferView": 1,
      "byteOffset": 3845480,
      "componentType": 5126,
      "count": 14336,
      "max": [
        1.3879799842834473,
        1.909600019454956
      ],
      "min": [
        -0.3879849910736084,
        -0.909604012966156
      ],
      "type": "VEC2"
    },
    {
      "bufferView": 0,
      "byteOffset": 9624300,
      "componentType": 5125,
      "count": 75432,
      "type": "SCALAR"
    },
    {
      "bufferView": 2,
      "byteOffset": 11880504,
      "componentType": 5126,
      "count": 96,
      "max": [
        4.887629985809326,
        4.676990032196045,
        1.2760000228881836
      ],
      "min": [
        0.3442240059375763,
        0.2975350022315979,
        -0.10990399867296219
      ],
      "type": "VEC3"
    },
    {
      "bufferView": 2,
      "byteOffset": 11881656,
      "componentType": 5126,
      "count": 96,
      "max": [
        0.9598894119262695,
        1.0,
        0.9598894119262695
      ],
      "min": [
        -0.9598894119262695,
        -1.0,
        -0.9598894119262695
      ],
      "type": "VEC3"
    },
    {
      "bufferView": 1,
      "byteOffset": 3960168,
      "componentType": 5126,
      "count": 96,
      "max": [
        1.0,
        1.0
      ],
      "min": [
        0.0,
        0.0
      ],
      "type": "VEC2"
    },
    {
      "bufferView": 0,
      "byteOffset": 9926028,
      "componentType": 5125,
      "count": 144,
      "type": "SCALAR"
    },
    {
      "bufferView": 2,
      "byteOffset": 11882808,
      "componentType": 5126,
      "count": 440,
      "max": [
        5.19035005569458,
        4.979700088500977,
        1.3256100416183472
      ],
      "min": [
        0.08230199664831161,
        -0.005176819860935211,
        -0.23636500537395477
      ],
      "type": "VEC3"
    },
    {
      "bufferView": 2,
      "byteOffset": 11888088,
      "componentType": 5126,
      "count": 440,
      "max": [
        0.9598894119262695,
        1.0,
        0.9598894119262695
      ],
      "min": [
        -0.9598894119262695,
        -1.0,
        -0.9598894119262695
      ],
      "type": "VEC3"
    },
    {
      "bufferView": 1,
      "byteOffset": 3960936,
      "componentType": 5126,
      "count": 440,
      "max": [
        1.0,
        1.0
      ],
      "min": [
        0.0,
        0.0
      ],
      "type": "VEC2"
    },
    {
      "bufferView": 0,
      "byteOffset": 9926604,
      "componentType": 5125,
      "count": 936,
      "type": "SCALAR"
    },
    {
      "bufferView": 2,
      "byteOffset": 11893368,
      "componentType": 5126,
      "count": 8196,
      "max": [
        5.209350109100342,
        5.014639854431152,
        1.4963899850845337
      ],
      "min": [
        0.004552510101348162,
        -3.254199981689453,
        -0.25668400526046753
      ],
      "type": "VEC3"
    },
    {
      "bufferView": 2,
      "byteOffset": 11991720,
      "componentType": 5126,
      "count": 8196,
      "max": [
        0.9999665021896362,
        1.0,
        0.9999672770500183
      ],
      "min": [
        -0.9999458193778992,
        -1.0,
        -0.9964472055435181
      ],
      "type": "VEC3"
    },
    {
      "bufferView": 3,
      "byteOffset": 7879760,
      "componentType": 5126,
      "count": 8196,
      "max": [
        0.9999911785125732,
        1.0,
        0.9999430775642395,
        1.0
      ],
      "min": [
        -0.9999673366546631,
        -1.0,
        -0.9999459385871887,
        -1.0
      ],
      "type": "VEC4"
    },
    {
      "bufferView": 1,
      "byteOffset": 3964456,
      "componentType": 5126,
      "count": 8196,
      "max": [
        1.0,
        1.0
      ],
      "min": [
        0.0,
        -4.0
      ],
      "type": "VEC2"
    },
    {
      "bufferView": 0,
      "byteOffset": 9930348,
      "componentType": 5125,
      "count": 30312,
      "type": "SCALAR"
    },
    {
      "bufferView": 2,
      "byteOffset": 12090072,
      "componentType": 5126,
      "count": 606,
      "max": [
        4.900169849395752,
        4.676990032196045,
        1.4588199853897095
      ],
      "min": [
        0.2467930018901825,
        -2.956660032272339,
        -0.13557299971580505
      ],
      "type": "VEC3"
    },
    {
      "bufferView": 2,
      "byteOffset": 12097344,
      "componentType": 5126,
      "count": 606,
      "max": [
        0.9702747464179993,
        1.0,
        0.9599229097366333
      ],
      "min": [
        -0.9726332426071167,
        -1.0,
        -0.9605470895767212
      ],
      "type": "VEC3"
    },
    {
      "bufferView": 1,
      "byteOffset": 4030024,
      "componentType": 5126,
      "count": 606,
      "max": [
        1.0,
        1.0
      ],
      "min": [
        0.0,
        0.0
      ],
      "type": "VEC2"
    },
    {
      "bufferView": 0,
      "byteOffset": 10051596,
      "componentType": 5125,
      "count": 1224,
      "type": "SCALAR"
    },
    {
      "bufferView": 2,
      "byteOffset": 12104616,
      "componentType": 5126,
      "count": 1064,
      "max": [
        4.879590034484863,
        4.676990032196045,
        1.2679500579833984
      ],
      "min": [
        0.35227200388908386,
        -2.956660032272339,
        -0.10185600072145462
      ],
      "type": "VEC3"
    },
    {
      "bufferView": 2,
      "byteOffset": 12117384,
      "componentType": 5126,
      "count": 1064,
      "max": [
        0.9997413754463196,
        1.0,
        0.9997437000274658
      ],
      "min": [
        -0.999748706817627,
        -1.0,
        -0.9997438192367554
      ],
      "type": "VEC3"
    },
    {
      "bufferView": 1,
      "byteOffset": 4034872,
      "componentType": 5126,
      "count": 1064,
      "max": [
        1.0,
        1.0
      ],
      "min": [
        0.0,
        0.0
      ],
      "type": "VEC2"
    },
    {
      "bufferView": 0,
      "byteOffset": 10056492,
      "componentType": 5125,
      "count": 4800,
      "type": "SCALAR"
    },
    {
      "bufferView": 2,
      "byteOffset": 12130152,
      "componentType": 5126,
      "count": 14336,
      "max": [
        5.134479999542236,
        4.877570152282715,
        1.242400050163269
      ],
      "min": [
        0.146124005317688,
        -3.157249927520752,
        -0.24316999316215515
      ],
      "type": "VEC3"
    },
    {
      "bufferView": 2,
      "byteOffset": 12302184,
      "componentType": 5126,
      "count": 14336,
      "max": [
        0.999977707862854,
        1.0,
        0.9998219013214111
      ],
      "min": [
        -0.9997949600219727,
        -1.0,
        -0.9999082684516907
      ],
      "type": "VEC3"
    },
    {
      "bufferView": 3,
      "byteOffset": 8010896,
      "componentType": 5126,
      "count": 14336,
      "max": [
        1.0,
        1.0,
        0.9999761581420898,
        1.0
      ],
      "min": [
        -1.0,
        -1.0,
        -0.9999757409095764,
        -1.0
      ],
      "type": "VEC4"
    },
    {
      "bufferView": 1,
      "byteOffset": 4043384,
      "componentType": 5126,
      "count": 14336,
      "max": [
        1.3879799842834473,
        1.909600019454956
      ],
      "min": [
        -0.3879849910736084,
        -0.909604012966156
      ],
      "type": "VEC2"
    },
    {
      "bufferView": 0,
      "byteOffset": 10075692,
      "componentType": 5125,
      "count": 75432,
      "type": "SCALAR"
    },
    {
      "bufferView": 2,
      "byteOffset": 12474216,
      "componentType": 5126,
      "count": 96,
      "max": [
        4.887629985809326,
        4.676990032196045,
        1.2760000228881836
      ],
      "min": [
        0.3442240059375763,
        -2.956660032272339,
        -0.10990399867296219
      ],
      "type": "VEC3"
    },
    {
      "bufferView": 2,
      "byteOffset": 12475368,
      "componentType": 5126,
      "count": 96,
      "max": [
        0.9598894119262695,
        1.0,
        0.9598894119262695
      ],
      "min": [
        -0.9598894119262695,
        -1.0,
        -0.9598894119262695
      ],
      "type": "VEC3"
    },
    {
      "bufferView": 1,
      "byteOffset": 4158072,
      "componentType": 5126,
      "count": 96,
      "max": [
        1.0,
        1.0
      ],
      "min": [
        0.0,
        0.0
      ],
      "type": "VEC2"
    },
    {
      "bufferView": 0,
      "byteOffset": 10377420,
      "componentType": 5125,
      "count": 144,
      "type": "SCALAR"
    },
    {
      "bufferView": 2,
      "byteOffset": 12476520,
      "componentType": 5126,
      "count": 440,
      "max": [
        5.19035005569458,
        4.979700088500977,
        1.3256100416183472
      ],
      "min": [
        0.08230199664831161,
        -3.2593700885772705,
        -0.23636500537395477
      ],
      "type": "VEC3"
    },
    {
      "bufferView": 2,
      "byteOffset": 12481800,
      "componentType": 5126,
      "count": 440,
      "max": [
        0.9598894119262695,
        1.0,
        0.9598894119262695
      ],
      "min": [
        -0.9598894119262695,
        -1.0,
        -0.9598894119262695
      ],
      "type": "VEC3"
    },
    {
      "bufferView": 1,
      "byteOffset": 4158840,
      "componentType": 5126,
      "count": 440,
      "max": [
        1.0,
        1.0
      ],
      "min": [
        0.0,
        0.0
      ],
      "type": "VEC2"
    },
    {
      "bufferView": 0,
      "byteOffset": 10377996,
      "componentType": 5125,
      "count": 936,
      "type": "SCALAR"
    },
    {
      "bufferView": 2,
      "byteOffset": 12487080,
      "componentType": 5126,
      "count": 250,
      "max": [
        16.0,
        17.686500549316406,
        16.0
      ],
      "min": [
        -16.0,
        -0.1381089985370636,
        -16.0
      ],
      "type": "VEC3"
    },
    {
      "bufferView": 2,
      "byteOffset": 12490080,
      "componentType": 5126,
      "count": 250,
      "max": [
        1.0,
        1.0,
        1.0
      ],
      "min": [
        -1.0,
        -1.0,
        -1.0
      ],
      "type": "VEC3"
    },
    {
      "bufferView": 3,
      "byteOffset": 8240272,
      "componentType": 5126,
      "count": 250,
      "max": [
        1.0,
        0.03366341441869736,
        1.0,
        1.0
      ],
      "min": [
        -1.0,
        -0.03366341069340706,
        -1.0,
        -1.0
      ],
      "type": "VEC4"
    },
    {
      "bufferView": 1,
      "byteOffset": 4162360,
      "componentType": 5126,
      "count": 250,
      "max": [
        0.5,
        1.0
      ],
      "min": [
        0.0,
        0.5
      ],
      "type": "VEC2"
    },
    {
      "bufferView": 0,
      "byteOffset": 10381740,
      "componentType": 5125,
      "count": 900,
      "type": "SCALAR"
    }
  ],
  "asset": {
    "extras": {
      "author": "haleem (https://sketchfab.com/haleem4)",
      "license": "CC-BY-4.0 (http://creativecommons.org/licenses/by/4.0/)",
      "source": "https://sketchfab.com/3d-models/old-library-3496a2eb37534246b898fbfcae5369a6",
      "title": "Old Library"
    },
    "generator": "Sketchfab-15.38.0",
    "version": "2.0"
  },
  "bufferViews": [
    {
      "buffer": 0,
      "byteLength": 10385340,
      "name": "floatBufferViews",
      "target": 34963
    },
    {
      "buffer": 0,
      "byteLength": 4164360,
      "byteOffset": 10385340,
      "byteStride": 8,
      "name": "floatBufferViews",
      "target": 34962
    },
    {
      "buffer": 0,
      "byteLength": 12493080,
      "byteOffset": 14549700,
      "byteStride": 12,
      "name": "floatBufferViews",
      "target": 34962
    },
    {
      "buffer": 0,
      "byteLength": 8244272,
      "byteOffset": 27042780,
      "byteStride": 16,
      "name": "floatBufferViews",
      "target": 34962
    }
  ],
  "buffers": [
    {
      "byteLength": 35287052,
      "uri": "scene.bin"
    }
  ],
  "extensionsUsed": [
    "KHR_texture_transform",
    "KHR_materials_emissive_strength",
    "KHR_materials_specular"
  ],
  "images": [
    {
      "uri": "textures/wall_stone_baseColor.jpeg"
    },
    {
      "uri": "textures/wall_stone_metallicRoughness.png"
    },
    {
      "uri": "textures/wall_stone_normal.png"
    },
    {
      "uri": "textures/Wood_Fraxinus_baseColor.jpeg"
    },
    {
      "uri": "textures/Wood_Fraxinus_metallicRoughness.png"
    },
    {
      "uri": "textures/Wood_Fraxinus_normal.png"
    },
    {
      "uri": "textures/Hinges_baseColor.jpeg"
    },
    {
      "uri": "textures/Hinges_metallicRoughness.png"
    },
    {
      "uri": "textures/Hinges_normal.png"
    },
    {
      "uri": "textures/Mat.5_baseColor.jpeg"
    },
    {
      "uri": "textures/Mat.5_metallicRoughness.png"
    },
    {
      "uri": "textures/Mat.5_normal.png"
    },
    {
      "uri": "textures/Mat.4_baseColor.jpeg"
    },
    {
      "uri": "textures/Mat.4_metallicRoughness.png"
    },
    {
      "uri": "textures/Mat.4_normal.png"
    },
    {
      "uri": "textures/fabric_baseColor.jpeg"
    },
    {
      "uri": "textures/fabric_metallicRoughness.png"
    },
    {
      "uri": "textures/fabric_normal.png"
    },
    {
      "uri": "textures/Mat.3_baseColor.jpeg"
    },
    {
      "uri": "textures/Mat.3_metallicRoughness.png"
    },
    {
      "uri": "textures/Mat.3_normal.png"
    },
    {
      "uri": "textures/paper_baseColor.jpeg"
    },
    {
      "uri": "textures/paper_metallicRoughness.png"
    },
    {
      "uri": "textures/paper_normal.png"
    },
    {
      "uri": "textures/material_baseColor.jpeg"
    }
  ],
  "materials": [
    {
      "doubleSided": true,
      "name": "material_0",
      "pbrMetallicRoughness": {
        "metallicFactor": 0.0,
        "roughnessFactor": 0.6
      }
    },
    {
      "doubleSided": true,
      "name": "wall_stone",
      "normalTexture": {
        "extensions": {
          "KHR_texture_transform": {
            "scale": [
              50.00000000000001,
              6.9999999999999964
            ]
          }
        },
        "index": 2
      },
      "pbrMetallicRoughness": {
        "baseColorTexture": {
          "extensions": {
            "KHR_texture_transform": {
              "scale": [
                50.00000000000001,
                6.9999999999999964
              ]
            }
          },
          "index": 0
        },
        "metallicFactor": 0.0,
        "metallicRoughnessTexture": {
          "index": 1
        }
      }
    },
    {
      "doubleSided": true,
      "name": "Wood_Fraxinus",
      "normalTexture": {
        "index": 5
      },
      "pbrMetallicRoughness": {
        "baseColorTexture": {
          "index": 3
        },
        "metallicFactor": 0.0,
        "metallicRoughnessTexture": {
          "index": 4
        },
        "roughnessFactor": 0.4493640710912283
      }
    },
    {
      "doubleSided": true,
      "name": "Plinth",
      "pbrMetallicRoughness": {
        "baseColorFactor": [
          0.142857,
          0.121015,
          0.107438,
          1.0
        ],
        "metallicFactor": 0.0,
        "roughnessFactor": 0.6
      }
    },
    {
      "doubleSided": true,
      "name": "Dividers",
      "pbrMetallicRoughness": {
        "metallicFactor": 0.0,
        "roughnessFactor": 0.6
      }
    },
    {
      "doubleSided": true,
      "name": "Hinges",
      "normalTexture": {
        "index": 8
      },
      "pbrMetallicRoughness": {
        "baseColorTexture": {
          "index": 6
        },
        "metallicRoughnessTexture": {
          "index": 7
        }
      }
    },
    {
      "alphaMode": "BLEND",
      "doubleSided": true,
      "name": "Glass",
      "pbrMetallicRoughness": {
        "baseColorFactor": [
          1.0,
          1.0,
          1.0,
          0.0
        ],
        "metallicFactor": 0.0,
        "roughnessFactor": 0.6
      }
    },
    {
      "doubleSided": true,
      "name": "Gasket",
      "pbrMetallicRoughness": {
        "baseColorFactor": [
          0.755102,
          0.605765,
          0.423242,
          1.0
        ],
        "metallicFactor": 0.0,
        "roughnessFactor": 0.6
      }
    },
    {
      "doubleSided": true,
      "emissiveFactor": [
        0.8977466934832048,
        0.10546712879026543,
        0.02404119880171257
      ],
      "extensions": {
        "KHR_materials_emissive_strength": {
          "emissiveStrength": 10.0
        }
      },
      "name": "laight_mat",
      "pbrMetallicRoughness": {
        "baseColorFactor": [
          0.865406356630406,
          0.3360578139508382,
          0.3360578139508382,
          1.0
        ],
        "metallicFactor": 0.0,
        "roughnessFactor": 0.6
      }
    },
    {
      "doubleSided": true,
      "name": "Gold_Grunge",
      "normalTexture": {
        "index": 8
      },
      "pbrMetallicRoughness": {
        "baseColorTexture": {
          "index": 6
        },
        "metallicRoughnessTexture": {
          "index": 7
        },
        "roughnessFactor": 0.766651991573994
      }
    },
    {
      "doubleSided": true,
      "extensions": {
        "KHR_materials_specular": {
          "specularColorFactor": [
            1.0,
            1.0,
            1.0
          ],
          "specularFactor": 0.4798725249838019
        }
      },
      "name": "Mat.2",
      "normalTexture": {
        "index": 5
      },
      "pbrMetallicRoughness": {
        "baseColorTexture": {
          "index": 3
        },
        "metallicFactor": 0.388347163306081,
        "metallicRoughnessTexture": {
          "index": 4
        },
        "roughnessFactor": 0.9191942610368622
      }
    },
    {
      "doubleSided": true,
      "name": "Mat.5",
      "normalTexture": {
        "index": 11
      },
      "pbrMetallicRoughness": {
        "baseColorTexture": {
          "index": 9
        },
        "metallicFactor": 0.0,
        "metallicRoughnessTexture": {
          "index": 10
        }
      }
    },
    {
      "doubleSided": true,
      "name": "Mat.4",
      "normalTexture": {
        "index": 14
      },
      "pbrMetallicRoughness": {
        "baseColorTexture": {
          "index": 12
        },
        "metallicFactor": 0.0,
        "metallicRoughnessTexture": {
          "index": 13
        }
      }
    },
    {
      "doubleSided": true,
      "extensions": {
        "KHR_materials_specular": {
          "specularColorFactor": [
            1.0,
            1.0,
            1.0
          ],
          "specularFactor": 1.0
        }
      },
      "name": "gold_paint",
      "normalTexture": {
        "index": 8
      },
      "pbrMetallicRoughness": {
        "baseColorTexture": {
          "index": 6
        },
        "metallicFactor": 0.3395336370779632,
        "metallicRoughnessTexture": {
          "index": 7
        }
      }
    },
    {
      "doubleSided": true,
      "name": "fabric",
      "normalTexture": {
        "index": 17
      },
      "pbrMetallicRoughness": {
        "baseColorTexture": {
          "index": 15
        },
        "metallicFactor": 0.0,
        "metallicRoughnessTexture": {
          "index": 16
        }
      }
    },
    {
      "doubleSided": true,
      "name": "Mat.3",
      "normalTexture": {
        "index": 20
      },
      "pbrMetallicRoughness": {
        "baseColorTexture": {
          "index": 18
        },
        "metallicRoughnessTexture": {
          "index": 19
        },
        "roughnessFactor": 0.5591945051044933
      }
    },
    {
      "doubleSided": true,
      "name": "Mat.1",
      "normalTexture": {
        "extensions": {
          "KHR_texture_transform": {
            "scale": [
              -10.76022300880911,
              -10.76022300880911
            ]
          }
        },
        "index": 17
      },
      "pbrMetallicRoughness": {
        "baseColorTexture": {
          "extensions": {
            "KHR_texture_transform": {
              "scale": [
                -10.760000000000002,
                -10.760000000000002
              ]
            }
          },
          "index": 15
        },
        "metallicFactor": 0.0,
        "metallicRoughnessTexture": {
          "index": 16
        }
      }
    },
    {
      "doubleSided": true,
      "extensions": {
        "KHR_materials_specular": {
          "specularColorFactor": [
            1.0,
            1.0,
            1.0
          ],
          "specularFactor": 0.5164826696548902
        }
      },
      "name": "paper",
      "normalTexture": {
        "index": 23
      },
      "pbrMetallicRoughness": {
        "baseColorTexture": {
          "index": 21
        },
        "metallicFactor": 0.0,
        "metallicRoughnessTexture": {
          "index": 22
        },
        "roughnessFactor": 0.4615674526482577
      }
    },
    {
      "doubleSided": true,
      "name": "material",
      "normalTexture": {
        "index": 17
      },
      "pbrMetallicRoughness": {
        "baseColorTexture": {
          "index": 24
        },
        "metallicFactor": 0.0,
        "metallicRoughnessTexture": {
          "index": 16
        }
      }
    }
  ],
  "meshes": [
    {
      "name": "Material1",
      "primitives": [
        {
          "attributes": {
            "NORMAL": 1,
            "POSITION": 0,
            "TANGENT": 2,
            "TEXCOORD_0": 3
          },
          "indices": 4,
          "material": 1,
          "mode": 4
        }
      ]
    },
    {
      "name": "Material2",
      "primitives": [
        {
          "attributes": {
            "NORMAL": 6,
            "POSITION": 5,
            "TANGENT": 7,
            "TEXCOORD_0": 8
          },
          "indices": 9,
          "material": 13,
          "mode": 4
        }
      ]
    },
    {
      "name": "Material4",
      "primitives": [
        {
          "attributes": {
            "NORMAL": 11,
            "POSITION": 10,
            "TANGENT": 12,
            "TEXCOORD_0": 13
          },
          "indices": 14,
          "material": 17,
          "mode": 4
        }
      ]
    },
    {
      "name": "Material1",
      "primitives": [
        {
          "attributes": {
            "NORMAL": 16,
            "POSITION": 15,
            "TANGENT": 17,
            "TEXCOORD_0": 18
          },
          "indices": 19,
          "material": 18,
          "mode": 4
        }
      ]
    },
    {
      "name": "Material3",
      "primitives": [
        {
          "attributes": {
            "NORMAL": 21,
            "POSITION": 20,
            "TANGENT": 22,
            "TEXCOORD_0": 23
          },
          "indices": 24,
          "material": 9,
          "mode": 4
        }
      ]
    },
    {
      "name": "Material2",
      "primitives": [
        {
          "attributes": {
            "NORMAL": 26,
            "POSITION": 25,
            "TANGENT": 27,
            "TEXCOORD_0": 28
          },
          "indices": 29,
          "material": 9,
          "mode": 4
        }
      ]
    },
    {
      "name": "Material2",
      "primitives": [
        {
          "attributes": {
            "NORMAL": 31,
            "POSITION": 30,
            "TANGENT": 32,
            "TEXCOORD_0": 33
          },
          "indices": 34,
          "material": 9,
          "mode": 4
        }
      ]
    },
    {
      "name": "Material2",
      "primitives": [
        {
          "attributes": {
            "NORMAL": 36,
            "POSITION": 35,
            "TANGENT": 37,
            "TEXCOORD_0": 38
          },
          "indices": 39,
          "material": 9,
          "mode": 4
        }
      ]
    },
    {
      "name": "Material1",
      "primitives": [
        {
          "attributes": {
            "NORMAL": 41,
            "POSITION": 40,
            "TANGENT": 42,
            "TEXCOORD_0": 43
          },
          "indices": 44,
          "material": 16,
          "mode": 4
        }
      ]
    },
    {
      "name": "Material3",
      "primitives": [
        {
          "attributes": {
            "NORMAL": 46,
            "POSITION": 45,
            "TANGENT": 47,
            "TEXCOORD_0": 48
          },
          "indices": 49,
          "material": 17,
          "mode": 4
        }
      ]
    },
    {
      "name": "Object_10",
      "primitives": [
        {
          "attributes": {
            "NORMAL": 51,
            "POSITION": 50,
            "TEXCOORD_0": 52
          },
          "indices": 53,
          "material": 0,
          "mode": 4
        }
      ]
    },
    {
      "name": "Material1",
      "primitives": [
        {
          "attributes": {
            "NORMAL": 55,
            "POSITION": 54,
            "TANGENT": 56,
            "TEXCOORD_0": 57
          },
          "indices": 58,
          "material": 10,
          "mode": 4
        }
      ]
    },
    {
      "name": "Material1",
      "primitives": [
        {
          "attributes": {
            "NORMAL": 60,
            "POSITION": 59,
            "TANGENT": 61,
            "TEXCOORD_0": 62
          },
          "indices": 63,
          "material": 10,
          "mode": 4
        }
      ]
    },
    {
      "name": "Material1",
      "primitives": [
        {
          "attributes": {
            "NORMAL": 65,
            "POSITION": 64,
            "TANGENT": 66,
            "TEXCOORD_0": 67
          },
          "indices": 68,
          "material": 10,
          "mode": 4
        }
      ]
    },
    {
      "name": "Material3",
      "primitives": [
        {
          "attributes": {
            "NORMAL": 70,
            "POSITION": 69,
            "TANGENT": 71,
            "TEXCOORD_0": 72
          },
          "indices": 73,
          "material": 13,
          "mode": 4
        }
      ]
    },
    {
      "name": "Material4",
      "primitives": [
        {
          "attributes": {
            "NORMAL": 75,
            "POSITION": 74,
            "TANGENT": 76,
            "TEXCOORD_0": 77
          },
          "indices": 78,
          "material": 10,
          "mode": 4
        }
      ]
    },
    {
      "name": "Material2",
      "primitives": [
        {
          "attributes": {
            "NORMAL": 80,
            "POSITION": 79,
            "TANGENT": 81,
            "TEXCOORD_0": 82
          },
          "indices": 83,
          "material": 14,
          "mode": 4
        }
      ]
    },
    {
      "name": "Material1",
      "primitives": [
        {
          "attributes": {
            "NORMAL": 85,
            "POSITION": 84,
            "TANGENT": 86,
            "TEXCOORD_0": 87
          },
          "indices": 88,
          "material": 15,
          "mode": 4
        }
      ]
    },
    {
      "name": "Material1",
      "primitives": [
        {
          "attributes": {
            "NORMAL": 90,
            "POSITION": 89,
            "TEXCOORD_0": 91
          },
          "indices": 92,
          "material": 8,
          "mode": 4
        }
      ]
    },
    {
      "name": "Material1",
      "primitives": [
        {
          "attributes": {
            "NORMAL": 94,
            "POSITION": 93,
            "TANGENT": 95,
            "TEXCOORD_0": 96
          },
          "indices": 97,
          "material": 12,
          "mode": 4
        }
      ]
    },
    {
      "name": "Material2",
      "primitives": [
        {
          "attributes": {
            "NORMAL": 99,
            "POSITION": 98,
            "TANGENT": 100,
            "TEXCOORD_0": 101
          },
          "indices": 102,
          "material": 10,
          "mode": 4
        }
      ]
    },
    {
      "name": "Material1",
      "primitives": [
        {
          "attributes": {
            "NORMAL": 104,
            "POSITION": 103,
            "TANGENT": 105,
            "TEXCOORD_0": 106
          },
          "indices": 107,
          "material": 11,
          "mode": 4
        }
      ]
    },
    {
      "name": "Material1",
      "primitives": [
        {
          "attributes": {
            "NORMAL": 109,
            "POSITION": 108,
            "TANGENT": 110,
            "TEXCOORD_0": 111
          },
          "indices": 112,
          "material": 10,
          "mode": 4
        }
      ]
    },
    {
      "name": "Material1",
      "primitives": [
        {
          "attributes": {
            "NORMAL": 114,
            "POSITION": 113,
            "TANGENT": 115,
            "TEXCOORD_0": 116
          },
          "indices": 117,
          "material": 10,
          "mode": 4
        }
      ]
    },
    {
      "name": "Material1",
      "primitives": [
        {
          "attributes": {
            "NORMAL": 119,
            "POSITION": 118,
            "TEXCOORD_0": 120
          },
          "indices": 121,
          "material": 8,
          "mode": 4
        }
      ]
    },
    {
      "name": "Material1",
      "primitives": [
        {
          "attributes": {
            "NORMAL": 123,
            "POSITION": 122,
            "TANGENT": 124,
            "TEXCOORD_0": 125
          },
          "indices": 126,
          "material": 9,
          "mode": 4
        }
      ]
    },
    {
      "name": "Material2",
      "primitives": [
        {
          "attributes": {
            "NORMAL": 128,
            "POSITION": 127,
            "TANGENT": 129,
            "TEXCOORD_0": 130
          },
          "indices": 131,
          "material": 10,
          "mode": 4
        }
      ]
    },
    {
      "name": "Material1",
      "primitives": [
        {
          "attributes": {
            "NORMAL": 133,
            "POSITION": 132,
            "TEXCOORD_0": 134
          },
          "indices": 135,
          "material": 6,
          "mode": 4
        }
      ]
    },
    {
      "name": "Material1",
      "primitives": [
        {
          "attributes": {
            "NORMAL": 137,
            "POSITION": 136,
            "TEXCOORD_0": 138
          },
          "indices": 139,
          "material": 8,
          "mode": 4
        }
      ]
    },
    {
      "name": "Material1",
      "primitives": [
        {
          "attributes": {
            "NORMAL": 141,
            "POSITION": 140,
            "TANGENT": 142,
            "TEXCOORD_0": 143
          },
          "indices": 144,
          "material": 9,
          "mode": 4
        }
      ]
    },
    {
      "name": "Material2",
      "primitives": [
        {
          "attributes": {
            "NORMAL": 146,
            "POSITION": 145,
            "TANGENT": 147,
            "TEXCOORD_0": 148
          },
          "indices": 149,
          "material": 10,
          "mode": 4
        }
      ]
    },
    {
      "name": "Material1",
      "primitives": [
        {
          "attributes": {
            "NORMAL": 151,
            "POSITION": 150,
            "TEXCOORD_0": 152
          },
          "indices": 153,
          "material": 6,
          "mode": 4
        }
      ]
    },
    {
      "name": "Material5",
      "primitives": [
        {
          "attributes": {
            "NORMAL": 155,
            "POSITION": 154,
            "TANGENT": 156,
            "TEXCOORD_0": 157
          },
          "indices": 158,
          "material": 2,
          "mode": 4
        }
      ]
    },
    {
      "name": "Material1",
      "primitives": [
        {
          "attributes": {
            "NORMAL": 160,
            "POSITION": 159,
            "TEXCOORD_0": 161
          },
          "indices": 162,
          "material": 3,
          "mode": 4
        }
      ]
    },
    {
      "name": "Material4",
      "primitives": [
        {
          "attributes": {
            "NORMAL": 164,
            "POSITION": 163,
            "TEXCOORD_0": 165
          },
          "indices": 166,
          "material": 4,
          "mode": 4
        }
      ]
    },
    {
      "name": "Material3",
      "primitives": [
        {
          "attributes": {
            "NORMAL": 168,
            "POSITION": 167,
            "TANGENT": 169,
            "TEXCOORD_0": 170
          },
          "indices": 171,
          "material": 5,
          "mode": 4
        }
      ]
    },
    {
      "name": "Material6",
      "primitives": [
        {
          "attributes": {
            "NORMAL": 173,
            "POSITION": 172,
            "TEXCOORD_0": 174
          },
          "indices": 175,
          "material": 6,
          "mode": 4
        }
      ]
    },
    {
      "name": "Material2",
      "primitives": [
        {
          "attributes": {
            "NORMAL": 177,
            "POSITION": 176,
            "TEXCOORD_0": 178
          },
          "indices": 179,
          "material": 7,
          "mode": 4
        }
      ]
    },
    {
      "name": "Material5",
      "primitives": [
        {
          "attributes": {
            "NORMAL": 181,
            "POSITION": 180,
            "TANGENT": 182,
            "TEXCOORD_0": 183
          },
          "indices": 184,
          "material": 2,
          "mode": 4
        }
      ]
    },
    {
      "name": "Material1",
      "primitives": [
        {
          "attributes": {
            "NORMAL": 186,
            "POSITION": 185,
            "TEXCOORD_0": 187
          },
          "indices": 188,
          "material": 3,
          "mode": 4
        }
      ]
    },
    {
      "name": "Material4",
      "primitives": [
        {
          "attributes": {
            "NORMAL": 190,
            "POSITION": 189,
            "TEXCOORD_0": 191
          },
          "indices": 192,
          "material": 4,
          "mode": 4
        }
      ]
    },
    {
      "name": "Material3",
      "primitives": [
        {
          "attributes": {
            "NORMAL": 194,
            "POSITION": 193,
            "TANGENT": 195,
            "TEXCOORD_0": 196
          },
          "indices": 197,
          "material": 5,
          "mode": 4
        }
      ]
    },
    {
      "name": "Material6",
      "primitives": [
        {
          "attributes": {
            "NORMAL": 199,
            "POSITION": 198,
            "TEXCOORD_0": 200
          },
          "indices": 201,
          "material": 6,
          "mode": 4
        }
      ]
    },
    {
      "name": "Material2",
      "primitives": [
        {
          "attributes": {
            "NORMAL": 203,
            "POSITION": 202,
            "TEXCOORD_0": 204
          },
          "indices": 205,
          "material": 7,
          "mode": 4
        }
      ]
    },
    {
      "name": "Material1",
      "primitives": [
        {
          "attributes": {
            "NORMAL": 207,
            "POSITION": 206,
            "TANGENT": 208,
            "TEXCOORD_0": 209
          },
          "indices": 210,
          "material": 1,
          "mode": 4
        }
      ]
    }
  ],
  "nodes": [
    {
      "children": [
        1
      ],
      "matrix": [
        1.0,
        0.0,
        0.0,
        0.0,
        0.0,
        2.220446049250313e-16,
        -1.0,
        0.0,
        0.0,
        1.0,
        2.220446049250313e-16,
        0.0,
        0.0,
        0.0,
        0.0,
        1.0
      ],
      "name": "Sketchfab_model"
    },
    {
      "children": [
        2,
        4,
        9,
        16,
        20,
        27,
        30,
        32,
        35,
        43,
        51,
        58,
        65
      ],
      "matrix": [
        1.0,
        0.0,
        0.0,
        0.0,
        0.0,
        -4.371139006309477e-08,
        0.999999999999999,
        0.0,
        0.0,
        -0.999999999999999,
        -4.371139006309477e-08,
        0.0,
        0.0,
        0.0,
        0.0,
        1.0
      ],
      "name": "Collada visual scene group"
    },
    {
      "children": [
        3
      ],
      "matrix": [
        1.0,
        0.0,
        0.0,
        0.0,
        0.0,
        1.0,
        0.0,
        0.0,
        0.0,
        0.0,
        1.0,
        0.0,
        0.0,
        17.64150047302246,
        0.0,
        1.0
      ],
      "name": "Disc.1"
    },
    {
      "mesh": 0,
      "name": "Material1"
    },
    {
      "children": [
        5,
        6,
        7,
        8
      ],
      "matrix": [
        0.6218861179797148,
        0.0,
        -0.7831076913580407,
        0.0,
        0.0,
        1.0,
        0.0,
        0.0,
        0.7831076913580407,
        0.0,
        0.6218861179797148,
        0.0,
        -1.5649199485778809,
        2.8489599227905273,
        4.671050071716309,
        1.0
      ],
      "name": "book_2"
    },
    {
      "mesh": 1,
      "name": "Material2"
    },
    {
      "mesh": 2,
      "name": "Material4"
    },
    {
      "mesh": 3,
      "name": "Material1"
    },
    {
      "mesh": 4,
      "name": "Material3"
    },
    {
      "children": [
        10,
        11,
        12,
        13,
        14,
        15
      ],
      "matrix": [
        0.6218861179797148,
        0.0,
        -0.7831076913580407,
        0.0,
        0.0,
        1.0,
        0.0,
        0.0,
        0.7831076913580407,
        0.0,
        0.6218861179797148,
        0.0,
        -2.6598598957061768,
        2.8640499114990234,
        1.8984700441360474,
        1.0
      ],
      "name": "book_1"
    },
    {
      "mesh": 5,
      "name": "Material2"
    },
    {
      "mesh": 6,
      "name": "Material2"
    },
    {
      "mesh": 7,
      "name": "Material2"
    },
    {
      "mesh": 8,
      "name": "Material1"
    },
    {
      "mesh": 9,
      "name": "Material3"
    },
    {
      "mesh": 10,
      "name": "Object_15"
    },
    {
      "children": [
        17,
        18,
        19
      ],
      "matrix": [
        0.6218861179797148,
        0.0,
        -0.7831076913580407,
        0.0,
        0.0,
        1.0,
        0.0,
        0.0,
        0.7831076913580407,
        0.0,
        0.6218861179797148,
        0.0,
        -1.8491899967193604,
        1.5895400047302246,
        2.2984700202941895,
        1.0
      ],
      "name": "table"
    },
    {
      "mesh": 11,
      "name": "Material1"
    },
    {
      "mesh": 12,
      "name": "Material1"
    },
    {
      "mesh": 13,
      "name": "Material1"
    },
    {
      "children": [
        21,
        22,
        23,
        24,
        25
      ],
      "matrix": [
        0.6218861179797148,
        0.0,
        -0.7831076913580407,
        0.0,
        0.0,
        1.0,
        0.0,
        0.0,
        0.7831076913580407,
        0.0,
        0.6218861179797148,
        0.0,
        -0.4602639973163605,
        4.086390018463135,
        2.495349884033203,
        1.0
      ],
      "name": "lamb"
    },
    {
      "mesh": 14,
      "name": "Material3"
    },
    {
      "mesh": 15,
      "name": "Material4"
    },
    {
      "mesh": 16,
      "name": "Material2"
    },
    {
      "mesh": 17,
      "name": "Material1"
    },
    {
      "children": [
        26
      ],
      "matrix": [
        1.0,
        0.0,
        0.0,
        0.0,
        0.0,
        1.0,
        0.0,
        0.0,
        0.0,
        0.0,
        1.0,
        0.0,
        -0.0017290200339630246,
        1.1159199476242065,
        0.0018115800339728594,
        1.0
      ],
      "name": "Sphere"
    },
    {
      "mesh": 18,
      "name": "Material1"
    },
    {
      "children": [
        28,
        29
      ],
      "matrix": [
        0.12186934340514777,
        0.0,
        0.992546151641322,
        0.0,
        0.0,
        1.0,
        0.0,
        0.0,
        -0.992546151641322,
        0.0,
        0.12186934340514777,
        0.0,
        0.0,
        5.458769798278809,
        0.0,
        1.0
      ],
      "name": "Tube"
    },
    {
      "mesh": 19,
      "name": "Material1"
    },
    {
      "mesh": 20,
      "name": "Material2"
    },
    {
      "children": [
        31
      ],
      "name": "Disc"
    },
    {
      "mesh": 21,
      "name": "Material1"
    },
    {
      "children": [
        33,
        34
      ],
      "matrix": [
        -0.4641310564277693,
        -2.1073454454429932e-08,
        -0.885766539478232,
        0.0,
        -9.780844678517048e-09,
        0.9999999999999998,
        -1.866616082695254e-08,
        0.0,
        0.8857665394782323,
        0.0,
        -0.4641310564277694,
        0.0,
        4.316239833831787,
        1.9899100065231323,
        -7.6758599281311035,
        1.0
      ],
      "name": "lader"
    },
    {
      "mesh": 22,
      "name": "Material1"
    },
    {
      "mesh": 23,
      "name": "Material1"
    },
    {
      "children": [
        36,
        38,
        40
      ],
      "matrix": [
        0.5081818590704379,
        0.0,
        -0.8612497884537991,
        0.0,
        0.0,
        1.0,
        0.0,
        0.0,
        0.8612497884537991,
        0.0,
        0.5081818590704379,
        0.0,
        5.280799865722656,
        9.340100288391113,
        -8.985790252685547,
        1.0
      ],
      "name": "wall_light.1"
    },
    {
      "children": [
        37
      ],
      "matrix": [
        1.0,
        0.0,
        0.0,
        0.0,
        0.0,
        1.0,
        0.0,
        0.0,
        0.0,
        0.0,
        1.0,
        0.0,
        -0.26161500811576843,
        -0.16693900525569916,
        0.006847720127552748,
        1.0
      ],
      "name": "Sphere"
    },
    {
      "mesh": 24,
      "name": "Material1"
    },
    {
      "children": [
        39
      ],
      "matrix": [
        1.0,
        0.0,
        0.0,
        0.0,
        0.0,
        1.0,
        0.0,
        0.0,
        0.0,
        0.0,
        1.0,
        0.0,
        0.5232300162315369,
        0.33387699723243713,
        -0.013695400208234787,
        1.0
      ],
      "name": "Cylinder"
    },
    {
      "mesh": 25,
      "name": "Material1"
    },
    {
      "children": [
        41,
        42
      ],
      "matrix": [
        1.0,
        0.0,
        0.0,
        0.0,
        0.0,
        1.0,
        0.0,
        0.0,
        0.0,
        0.0,
        1.0,
        0.0,
        -0.26161500811576843,
        -0.16693900525569916,
        0.006847720127552748,
        1.0
      ],
      "name": "Sphere"
    },
    {
      "mesh": 26,
      "name": "Material2"
    },
    {
      "mesh": 27,
      "name": "Material1"
    },
    {
      "children": [
        44,
        46,
        48
      ],
      "matrix": [
        0.5457007145022578,
        -0.011984046231358595,
        0.83789445208072,
        0.0,
        -0.043710247100810756,
        0.998129464442366,
        0.0427432627484338,
        0.0,
        -0.836839377951415,
        -0.05994960256682477,
        0.5441561362899149,
        0.0,
        6.136859893798828,
        9.344079971313477,
        8.462699890136719,
        1.0
      ],
      "name": "wall_light_2"
    },
    {
      "children": [
        45
      ],
      "matrix": [
        1.0,
        0.0,
        0.0,
        0.0,
        0.0,
        1.0,
        0.0,
        0.0,
        0.0,
        0.0,
        1.0,
        0.0,
        -0.26161500811576843,
        -0.16693900525569916,
        0.006847720127552748,
        1.0
      ],
      "name": "Sphere"
    },
    {
      "mesh": 28,
      "name": "Material1"
    },
    {
      "children": [
        47
      ],
      "matrix": [
        1.0,
        0.0,
        0.0,
        0.0,
        0.0,
        1.0,
        0.0,
        0.0,
        0.0,
        0.0,
        1.0,
        0.0,
        0.5232300162315369,
        0.33387699723243713,
        -0.013695400208234787,
        1.0
      ],
      "name": "Cylinder"
    },
    {
      "mesh": 29,
      "name": "Material1"
    },
    {
      "children": [
        49,
        50
      ],
      "matrix": [
        1.0,
        0.0,
        0.0,
        0.0,
        0.0,
        1.0,
        0.0,
        0.0,
        0.0,
        0.0,
        1.0,
        0.0,
        -0.26161500811576843,
        -0.16693900525569916,
        0.006847720127552748,
        1.0
      ],
      "name": "Sphere"
    },
    {
      "mesh": 30,
      "name": "Material2"
    },
    {
      "mesh": 31,
      "name": "Material1"
    },
    {
      "children": [
        52,
        53,
        54,
        55,
        56,
        57
      ],
      "matrix": [
        -0.02298396217328369,
        0.0,
        -0.9997358338495311,
        0.0,
        0.0,
        1.0,
        0.0,
        0.0,
        0.9997358338495311,
        0.0,
        -0.02298396217328369,
        0.0,
        -14.853699684143066,
        3.1473500728607178,
        -1.415809988975525,
        1.0
      ],
      "name": "Window"
    },
    {
      "mesh": 32,
      "name": "Material5"
    },
    {
      "mesh": 33,
      "name": "Material1"
    },
    {
      "mesh": 34,
      "name": "Material4"
    },
    {
      "mesh": 35,
      "name": "Material3"
    },
    {
      "mesh": 36,
      "name": "Material6"
    },
    {
      "mesh": 37,
      "name": "Material2"
    },
    {
      "children": [
        59,
        60,
        61,
        62,
        63,
        64
      ],
      "matrix": [
        -0.5197726120464492,
        0.0,
        -0.854304648100671,
        0.0,
        0.0,
        1.0,
        0.0,
        0.0,
        0.854304648100671,
        0.0,
        -0.5197726120464492,
        0.0,
        -13.494099617004395,
        3.1473500728607178,
        6.563700199127197,
        1.0
      ],
      "name": "door"
    },
    {
      "mesh": 38,
      "name": "Material5"
    },
    {
      "mesh": 39,
      "name": "Material1"
    },
    {
      "mesh": 40,
      "name": "Material4"
    },
    {
      "mesh": 41,
      "name": "Material3"
    },
    {
      "mesh": 42,
      "name": "Material6"
    },
    {
      "mesh": 43,
      "name": "Material2"
    },
    {
      "children": [
        66
      ],
      "name": "walls"
    },
    {
      "mesh": 44,
      "name": "Material1"
    }
  ],
  "samplers": [
    {
      "magFilter": 9729,
      "minFilter": 9987,
      "wrapS": 10497,
      "wrapT": 10497
    }
  ],
  "scene": 0,
  "scenes": [
    {
      "name": "Sketchfab_Scene",
      "nodes": [
        0
      ]
    }
  ],
  "textures": [
    {
      "sampler": 0,
      "source": 0
    },
    {
      "sampler": 0,
      "source": 1
    },
    {
      "sampler": 0,
      "source": 2
    },
    {
      "sampler": 0,
      "source": 3
    },
    {
      "sampler": 0,
      "source": 4
    },
    {
      "sampler": 0,
      "source": 5
    },
    {
      "sampler": 0,
      "source": 6
    },
    {
      "sampler": 0,
      "source": 7
    },
    {
      "sampler": 0,
      "source": 8
    },
    {
      "sampler": 0,
      "source": 9
    },
    {
      "sampler": 0,
      "source": 10
    },
    {
      "sampler": 0,
      "source": 11
    },
    {
      "sampler": 0,
      "source": 12
    },
    {
      "sampler": 0,
      "source": 13
    },
    {
      "sampler": 0,
      "source": 14
    },
    {
      "sampler": 0,
      "source": 15
    },
    {
      "sampler": 0,
      "source": 16
    },
    {
      "sampler": 0,
      "source": 17
    },
    {
      "sampler": 0,
      "source": 18
    },
    {
      "sampler": 0,
      "source": 19
    },
    {
      "sampler": 0,
      "source": 20
    },
    {
      "sampler": 0,
      "source": 21
    },
    {
      "sampler": 0,
      "source": 22
    },
    {
      "sampler": 0,
      "source": 23
    },
    {
      "sampler": 0,
      "source": 24
    }
  ]
}
